<svg id="Layer_1" data-name="Layer 1" xmlns="http://www.w3.org/2000/svg" viewBox="0 0 301.93 135.42"><defs><style>.cls-1{fill:#f48431;}.cls-2,.cls-3{fill:#0e4069;}.cls-3{font-size:73.89px;font-family:Ubuntu-Bold, Ubuntu;font-weight:700;}.cls-4{font-size:44.04px;fill:#fff;font-family:Ubuntu-Regular, Ubuntu;}.cls-5{letter-spacing:0.02em;}.cls-6{letter-spacing:0em;}</style></defs><title>TUFPRO  Hand Wash App final</title><path class="cls-1" d="M292.41,90.14l-204.82,0c.1,1,.15,2.06.15,3.11A35.25,35.25,0,0,1,57,128c5,2.51,13.93,4.18,26,4.18l209.4-.12a9.45,9.45,0,0,0,9.44-9.46v-23A9.45,9.45,0,0,0,292.41,90.14Z"/><path class="cls-2" d="M53.12,28.41a2.66,2.66,0,0,0-1.64-2.49,2.73,2.73,0,0,0-3.85,2.52c0,3.61,0,7.23,0,10.85a2.32,2.32,0,0,1,0,.37.7.7,0,0,1-.66.6.68.68,0,0,1-.7-.59,2.67,2.67,0,0,1,0-.4V23.58a4.49,4.49,0,0,0-.07-.9,2.74,2.74,0,0,0-5.41.55c0,.52,0,1.05,0,1.58V37.74c0,.49-.26.79-.67.8a.72.72,0,0,1-.73-.79c0-.09,0-.18,0-.27V21.86c0-.16,0-.31,0-.47a2.73,2.73,0,0,0-5.45.19v16c0,.64-.24,1-.7,1s-.69-.33-.69-1V25.22c0-.16,0-.33,0-.5a2.74,2.74,0,0,0-2.42-2.45,2.63,2.63,0,0,0-2.91,2.82c0,6.77.12,13.55.12,20.32v.39s-.18,0-.21,0c-1-1.44-2.14-2.89-3.21-4.3a4.65,4.65,0,0,0-1.22-1.12,3.18,3.18,0,0,0-4.76,1.47,3.52,3.52,0,0,0,.41,3.27c2.69,4.09,5.48,8.17,8.18,12.25a16.82,16.82,0,0,0,4.7,4.34V73.54h17.5V61.33a10.21,10.21,0,0,0,3.41-4.51,13.37,13.37,0,0,0,1-5.26q0-10.25,0-20.49C53.13,30.18,53.14,29.3,53.12,28.41Z"/><text class="cls-3" transform="translate(84.12 82.09)">HAND</text><text class="cls-4" transform="translate(93.71 127.1)">S<tspan class="cls-5" x="23.43" y="0">C</tspan><tspan class="cls-6" x="51.7" y="0">ANNER</tspan></text><path class="cls-1" d="M26.13,92.67c1.43,1.44,2.77,3,4.3,4.29,2.88,2.49,6.36,4,9.82,5.46,2.25,1,4.43,2.08,6.6,3.21a1.29,1.29,0,0,1,.45,2,1.36,1.36,0,0,1-1.94.39c-2.84-1.34-5.67-2.7-8.55-4-5-2.22-9.61-5-12.68-9.71A4.18,4.18,0,0,0,20,92.21c-5.77.11-9.75-3.92-9.77-9.66,0-3.93,0-7.86,0-11.79V69.48c-4.24-.41-6.42-2-6.9-4.9C2.79,61.16,4.12,59,8,57.14,4.83,56.36,2.32,55,1.8,51.57c-.44-2.83.9-5.09,4.31-7.08C5,43.73,3.8,43,2.71,42.26A6.06,6.06,0,0,1,1,34a6.07,6.07,0,0,1,8.09-2.41l1.16.59a25.42,25.42,0,0,1,0-2.79A2.22,2.22,0,0,0,9,26.94c-2.12-1.23-4.19-2.57-6.21-4A6.21,6.21,0,0,1,.32,15.85a6.08,6.08,0,0,1,6-4.34,24.79,24.79,0,0,1,3.94.75c0-.64,0-1.37,0-2.1C10.18,4.06,14.14,0,20.22,0H55.34c5.9,0,9.93,4.12,9.85,10,0,3.52,0,7,0,10.57a6.36,6.36,0,0,0,.11.8c5.65-2.68,9.72,1.74,9.58,6.31a31.31,31.31,0,0,0,2,11.43c1.76,5,3.68,10,5.55,14.93,1.62,4.32,2.06,8.63.22,13a20.63,20.63,0,0,0-1.08,3.51c-.76,3.43-1.45,6.86-2.14,10.3A2.08,2.08,0,0,0,80.3,83c2.82,2.44,5.59,4.93,8.37,7.4,1,.88,1.2,1.72.62,2.42s-1.51.61-2.55-.31L84,90.06l-6.66-5.9L49.91,113.74c3.55,3.31,6.15,7.1,9.44,10.65a24.08,24.08,0,0,0,1.76,1.74c1,.82,2.1,1.74,2,3a12.48,12.48,0,0,1-5.12-1,4.85,4.85,0,0,1-1.25-.72,6.12,6.12,0,0,1-1.33-2.17c-2-4.31-4.72-6.83-8.09-10-1.13-1.06-1.13-1.71,0-2.89q13.93-15,27.89-30.07a6.27,6.27,0,0,0,1.56-3.15c1.14-5,2.54-10,3.78-15a9,9,0,0,0,.43-3.6,57.9,57.9,0,0,0-2.09-7.91c-1.56-4.56-3.42-9-5-13.57a43.14,43.14,0,0,1-2-12.32,3.37,3.37,0,0,0-3-3.38A3.15,3.15,0,0,0,65.46,26a9.92,9.92,0,0,0-.27,2.55q0,26.84,0,53.66c0,6.13-3.93,10-10.07,10H26.39ZM20.23,52a6.2,6.2,0,0,1-4.35,6.58,12.72,12.72,0,0,1,1.49,2.85c.76,3.24-.38,6.32-3.55,7.65a1.33,1.33,0,0,0-.66.93,24.86,24.86,0,0,0,0,2.6H62.24V10.79H13.14v1.37c0,6.92,0,13.84,0,20.75a1.83,1.83,0,0,0,1,1.86,9.32,9.32,0,0,1,2.07,1.51,6.2,6.2,0,0,1-.45,9.06c-.29.27-.59.52-1,.91C17.88,47.05,20,48.75,20.23,52Zm-7,23.61a5.66,5.66,0,0,0-.12.81c0,2.2,0,4.41,0,6.62a6.35,6.35,0,0,0,6.34,6.33q18.23,0,36.44,0a6.24,6.24,0,0,0,6.32-5.67c.2-2.64,0-5.31,0-8.09ZM55.87,2.88c-5,0-10.06,0-15.09,0-7,0-14.07,0-21.1,0a6.13,6.13,0,0,0-6.21,4.88H62A6.14,6.14,0,0,0,55.87,2.88ZM14.94,41.56A3,3,0,0,0,13.83,38c-2-1.33-4-2.62-6-3.81a3.12,3.12,0,0,0-4.27,1.19,3.09,3.09,0,0,0,.59,4.39c2,1.41,4.11,2.67,6.2,3.95a3.84,3.84,0,0,0,1.12.32A3.49,3.49,0,0,0,14.94,41.56Zm.49,7.95C13.2,48.73,11,48,8.67,47.36a3.11,3.11,0,0,0-3.92,2.39,3.1,3.1,0,0,0,2.05,4q3.12,1.08,6.29,2a3.27,3.27,0,0,0,4.31-3.28A3,3,0,0,0,15.43,49.51ZM10.19,16.66c-.11-1.44-1.64-1.79-2.77-2.19a3.42,3.42,0,0,0-4.21,1.82,3.37,3.37,0,0,0,1.25,4.4c1.82,1.22,3.69,2.37,5.79,3.7C10.25,21.63,10.38,19.13,10.19,16.66Zm-1,43.43a3.07,3.07,0,0,0-3.12,3.1A3.11,3.11,0,0,0,9,66.5c.9.07,1.8,0,2.7,0a3.08,3.08,0,0,0,3.18-3.17,3.11,3.11,0,0,0-3-3.25c-.49,0-1,0-1.47,0v0C10,60.09,9.6,60.08,9.19,60.09Z"/><path class="cls-1" d="M77.4,95.25A2.67,2.67,0,0,0,74.69,98a2.74,2.74,0,0,0,2.68,2.66A2.68,2.68,0,0,0,80.12,98,2.64,2.64,0,0,0,77.4,95.25Z"/><path class="cls-1" d="M32.85,78.5c0-.41,0-.81,0-1.22,0-2.46,1.24-3.66,3.71-3.68.94,0,1.88,0,2.82,0a3.16,3.16,0,0,1,3.21,3.18c0,1.14,0,2.29,0,3.43a3.14,3.14,0,0,1-3.14,3.12c-1.15,0-2.29,0-3.44,0a3.16,3.16,0,0,1-3.14-3.12c0-.57,0-1.14,0-1.72Zm3-2v3.81h3.77V76.55Z"/></svg>