<svg id="Layer_1" data-name="Layer 1" xmlns="http://www.w3.org/2000/svg" viewBox="0 0 61.17 82.67"><defs><style>.cls-1{fill:#221f20;}.cls-1,.cls-2,.cls-3{fill-rule:evenodd;}.cls-2{fill:#f5811e;}.cls-2,.cls-3{stroke:#221f20;stroke-linejoin:bevel;stroke-width:0.26px;}.cls-3{fill:#fdd1af;}</style></defs><title>TUFPRO  Hand Wash App final</title><path class="cls-1" d="M42.67,62.29a10.29,10.29,0,0,0,.56,3.92A2.6,2.6,0,0,0,45,67.92a3.3,3.3,0,0,0,.85.17c.55,0,.81.17.81.42s0,.3-.17.35a1.45,1.45,0,0,1-.68.08H39.22a1.35,1.35,0,0,1-.64-.08c-.13,0-.17-.17-.17-.35s.21-.38.68-.42a1.06,1.06,0,0,0,.39,0,2.42,2.42,0,0,0,1.74-1.67,11.27,11.27,0,0,0,.6-4V49.89a2.47,2.47,0,0,0-2.3-1.16,4,4,0,0,0-.64,0,1.14,1.14,0,0,1-.47-.13.42.42,0,0,1-.17-.34.43.43,0,0,1,.21-.34,1.71,1.71,0,0,1,.6-.08h7.08a1,1,0,0,1,.38,0,.58.58,0,0,1,.21.13,3,3,0,0,1,.22.51,4.13,4.13,0,0,0,.38.81L56.7,63.87V54.23a9.6,9.6,0,0,0-.56-3.79,2.56,2.56,0,0,0-1.7-1.62,2.38,2.38,0,0,0-.9-.13c-.55,0-.85-.21-.85-.47a.45.45,0,0,1,.21-.34,2.41,2.41,0,0,1,.69-.08h6.65a2.21,2.21,0,0,1,.64.08.45.45,0,0,1,.21.34c0,.26-.26.43-.73.47H60a2.55,2.55,0,0,0-1.87,1.62,9.31,9.31,0,0,0-.64,3.92V64.81a2.86,2.86,0,0,0,1.19.89c.47.17.73.34.73.47s-.3.3-.81.55-1,.56-1.37.81A9,9,0,0,0,56,68.77a3.64,3.64,0,0,1-.69.73c-.17,0-.34-.22-.63-.64-.05,0-.05-.13-.09-.13L42.67,49.93Z"/><path class="cls-1" d="M44.93,8.53a16.09,16.09,0,0,1,6.82,15.9c-.72,4.91-4.13,9.17-8.48,11.81a15.68,15.68,0,0,1-16.28,7,16.71,16.71,0,0,1-11.22-8.1A16.25,16.25,0,0,1,8.61,19.06c.85-4.94,3.88-9.76,8.74-11.89A15.93,15.93,0,0,1,33.59.26,16.89,16.89,0,0,1,44.93,8.53Zm-5.58,9.72a9.81,9.81,0,0,1-2.26,10.49A10.81,10.81,0,0,1,30,31.64a10.56,10.56,0,0,1-8.4-5c-1.87-3.07-1.79-7.89.47-10.7a11,11,0,0,1,2.73-2.56A10.08,10.08,0,0,1,34.74,13a10.78,10.78,0,0,1,4.61,5.24Z"/><path class="cls-2" d="M43.74,7.64c-6.05-3.11-13.09-2.13-16.67.55-4.82,3.24-7.12,8.32-7.33,13.94a11.08,11.08,0,0,0,3.62,7.55A15.48,15.48,0,0,1,23,2.52,15,15,0,0,1,33.21.69a15.44,15.44,0,0,1,10.53,7Z"/><path class="cls-3" d="M49.84,15.06a15.58,15.58,0,0,1-1,15.43,13.14,13.14,0,0,1-4.43,4.22,17.25,17.25,0,0,0,1-11.6c-1.28-5.2-6.39-10-11.59-11.29a11.32,11.32,0,0,0-11.94,3.41A15.26,15.26,0,0,1,30,7.13c5.42-2,12.15-.86,16.24,3.15a14.67,14.67,0,0,1,3.59,4.78Z"/><path class="cls-3" d="M16.58,8.15C13.9,13,14,20.26,17.22,24.78c3.46,4.51,8.27,7.75,14.16,7.2a11.51,11.51,0,0,0,7.2-4.09,15.17,15.17,0,0,1-14,9.29,15.5,15.5,0,0,1-13.65-7.89C8.14,25,8.36,18.42,10.79,14a14.26,14.26,0,0,1,5.79-5.88Z"/><path class="cls-2" d="M45,23.67a3.08,3.08,0,0,1,.17.64A15.52,15.52,0,0,1,22.25,41,14.57,14.57,0,0,1,17,36c1.15.34,2.09.81,3.24,1.15a16.11,16.11,0,0,0,17.61-6.82c2.47-3.41,3.58-8.82,1.74-12.79a13.73,13.73,0,0,0-3.28-4.13l0-.09A15.81,15.81,0,0,1,45,23.67Z"/><path class="cls-1" d="M2,77.72H4.43a2.92,2.92,0,0,0,1.79-.34,1.63,1.63,0,0,0,0-2.34,2.9,2.9,0,0,0-1.71-.34H2Zm-1.45,5V73.55h4A12.4,12.4,0,0,1,6,73.63a2.58,2.58,0,0,1,.89.26,2,2,0,0,1,1,.93,2.49,2.49,0,0,1,.34,1.37,2.44,2.44,0,0,1-.34,1.36,2.49,2.49,0,0,1-1,.94,2.78,2.78,0,0,1-.93.26,9.27,9.27,0,0,1-1.71.08H2v3.84Z"/><polygon class="cls-1" points="9.68 82.67 9.68 73.55 11.17 73.55 11.17 77.3 16.8 77.3 16.8 73.55 18.29 73.55 18.29 82.67 16.8 82.67 16.8 78.41 11.17 78.41 11.17 82.67 9.68 82.67"/><path class="cls-1" d="M22.51,78.87h3.37l-1.67-4Zm-3.11,3.8,4-9.12H25l4.05,9.12H27.5l-1.15-2.73H22.08l-1.19,2.73Z"/><path class="cls-1" d="M31.63,74.61v3.11h2.52a3.59,3.59,0,0,0,1.92-.38,1.37,1.37,0,0,0,.59-1.24A1.27,1.27,0,0,0,36.11,75a4.14,4.14,0,0,0-2-.34Zm-1.45-1.06H34.4a11.62,11.62,0,0,1,1.49.08,2.41,2.41,0,0,1,.86.26,2.61,2.61,0,0,1,1.06.85,2.72,2.72,0,0,1,.34,1.36,2,2,0,0,1-.38,1.24,2.05,2.05,0,0,1-1.11.81,1.81,1.81,0,0,1,.9.51,2.11,2.11,0,0,1,.34,1.19l.13,1.5a1.83,1.83,0,0,0,.17.72.45.45,0,0,0,.34.34v.26H36.83a2.68,2.68,0,0,1-.3-1.2v0l-.08-1.19A1.55,1.55,0,0,0,36,79a4.44,4.44,0,0,0-2-.25H31.67v3.88H30.18Z"/><path class="cls-1" d="M41.56,74.91v7.76H40.2V73.55h2.09l2.69,7a1.7,1.7,0,0,1,.17.47.79.79,0,0,1,.08.29c0-.17.09-.29.13-.42a1.62,1.62,0,0,1,.13-.34l2.77-7h2.13v9.12H48.94V74.91a1.05,1.05,0,0,1-.09.38c0,.13-.12.3-.17.43l-2.77,7h-1.4l-2.73-7-.13-.38c0-.13-.09-.3-.09-.43Z"/><path class="cls-1" d="M54.65,78.87H58l-1.66-4Zm-3.15,3.8,4-9.12h1.62l4,9.12H59.6l-1.15-2.73H54.18L53,82.67Z"/><path class="cls-1" d="M19.52,54.57a15.66,15.66,0,0,0-.34-4.39A2.12,2.12,0,0,0,18,48.86a4,4,0,0,0-1.07-.21c-.51,0-.77-.17-.77-.43a.36.36,0,0,1,.17-.34,1.71,1.71,0,0,1,.6-.08h10a2.32,2.32,0,0,1,.68.08.38.38,0,0,1,.21.34c0,.26-.34.39-.94.47a2.75,2.75,0,0,0-.76.09A2.1,2.1,0,0,0,24.3,50c-.34.64-.47,2.18-.47,4.56v8.62A12.15,12.15,0,0,0,24,65.27a5.59,5.59,0,0,0,.51,1.33,3.46,3.46,0,0,0,1.75,1.45,7.38,7.38,0,0,0,2.9.51c2.09,0,3.62-.51,4.56-1.58s1.41-2.77,1.41-5.16V54.15a9.69,9.69,0,0,0-.56-3.75,2.4,2.4,0,0,0-1.7-1.58,2.75,2.75,0,0,0-.9-.13c-.55,0-.85-.21-.85-.47a.35.35,0,0,1,.17-.34,1.78,1.78,0,0,1,.64-.08h6.56a2.48,2.48,0,0,1,.73.08.35.35,0,0,1,.17.34c0,.22-.22.39-.68.39a4.41,4.41,0,0,0-.47.08,2.27,2.27,0,0,0-1.67,1.62,9.46,9.46,0,0,0-.59,3.8v8.14c0,2.56-.64,4.43-1.88,5.54s-3.32,1.71-6.18,1.71A15.23,15.23,0,0,1,24.09,69a7.93,7.93,0,0,1-2.77-1.41A4.62,4.62,0,0,1,20,65.79a8.46,8.46,0,0,1-.43-3.16Z"/><path class="cls-1" d="M15.73,52.61a.66.66,0,0,1,.13.34c0,.09,0,.17,0,.22a.86.86,0,0,1-.08.38.5.5,0,0,1-.26.09c-.21,0-.6-.43-1.15-1.37-.3-.47-.56-.85-.73-1.15a6.79,6.79,0,0,0-2.43-2.26A6.33,6.33,0,0,0,8.14,48,4.84,4.84,0,0,0,5,49a3,3,0,0,0-1.19,2.51,2.87,2.87,0,0,0,.3,1.37,3.62,3.62,0,0,0,.93,1.06,28.39,28.39,0,0,0,4.78,1.62c.77.22,1.32.39,1.75.47a8.57,8.57,0,0,1,4,2.26A5.43,5.43,0,0,1,16.92,62a6.59,6.59,0,0,1-2.3,5.2,8.32,8.32,0,0,1-5.88,2,12.58,12.58,0,0,1-2-.17,10.56,10.56,0,0,0-1.23-.17,1.49,1.49,0,0,0-1.24.76c-.38.56-.6.81-.72.81a.3.3,0,0,1-.17-.08A1.68,1.68,0,0,1,3.11,70L.21,63.1a1.86,1.86,0,0,1-.12-.3A.56.56,0,0,1,0,62.59a.68.68,0,0,1,.09-.34.36.36,0,0,1,.29-.13c.17,0,.52.38,1,1.19a21.67,21.67,0,0,0,1.66,2A9.9,9.9,0,0,0,6,67.66a7.53,7.53,0,0,0,3.15.68,4.77,4.77,0,0,0,3.2-1.06,3.52,3.52,0,0,0,1.24-2.73c0-1.75-2-3.24-6.06-4.43C7.2,60,7,60,6.86,60a13.28,13.28,0,0,1-5-2.48A4.9,4.9,0,0,1,.47,53.81a6,6,0,0,1,2.17-4.73,7.86,7.86,0,0,1,5.42-1.92,10.63,10.63,0,0,1,2.17.25c.81.13,1.28.22,1.45.22a1,1,0,0,0,1-.69c.21-.42.34-.68.47-.68s.13,0,.17.13a1.39,1.39,0,0,1,.21.47Z"/></svg>